<svg xmlns="http://www.w3.org/2000/svg" width="16.5" height="16.5" viewBox="0 0 16.5 16.5">
  <g id="Group_3394" data-name="Group 3394" transform="translate(-1125.75 -1124.751)">
    <g id="Group_54" data-name="Group 54" transform="translate(1126 1125.001)">
      <path id="Path_26" data-name="Path 26" d="M2.663,0A8.009,8.009,0,1,0,8.317,2.346,8,8,0,0,0,2.663,0Zm0,14.933a6.94,6.94,0,1,1,4.9-2.033A6.926,6.926,0,0,1,2.663,14.933Z" transform="translate(5.337)" fill="#129e41" stroke="#129e41" stroke-width="0.5"/>
    </g>
    <g id="Group_55" data-name="Group 55" transform="translate(1133.289 1131.457)">
      <path id="Path_27" data-name="Path 27" d="M.237,0A.711.711,0,0,0-.474.711V5.174a.711.711,0,0,0,1.066.616.712.712,0,0,0,.355-.616V.711A.711.711,0,0,0,.237,0Z" transform="translate(0.474 0)" fill="#129e41" stroke="#129e41" stroke-width="0.5"/>
    </g>
    <g id="Group_56" data-name="Group 56" transform="translate(1133.288 1128.659)">
      <path id="Path_28" data-name="Path 28" d="M.474.237A.71.71,0,0,1-.237.947.711.711,0,0,1-.949.237.711.711,0,0,1-.237-.474.71.71,0,0,1,.474.237" transform="translate(0.949 0.474)" fill="#129e41" stroke="#129e41" stroke-width="0.5"/>
    </g>
  </g>
</svg>
